HIERARCHY
ROOT Hips
{
	OFFSET -0.001795 -0.223333 0.028219
	CHANNELS 6 Xposition Yposition Zposition Zrotation Yrotation Xrotation 
	JOINT LeftUpLeg
	{
		OFFSET 0.069520 -0.091406 -0.006815
		CHANNELS 3 Zrotation Yrotation Xrotation
		JOINT LeftLeg
		{
			OFFSET 0.034277 -0.375199 -0.004496
			CHANNELS 3 Zrotation Yrotation Xrotation
			JOINT LeftFoot
			{
				OFFSET -0.013596 -0.397961 -0.043693
				CHANNELS 3 Zrotation Yrotation Xrotation
				JOINT LeftToe
				{
					OFFSET 0.026358 -0.055791 0.119288
					CHANNELS 3 Zrotation Yrotation Xrotation
					End Site
					{
						OFFSET 0.000000 0.000000 0.000000
					}
				}
			}
		}
	}
	JOINT RightUpLeg
	{
		OFFSET -0.067670 -0.090522 -0.004320
		CHANNELS 3 Zrotation Yrotation Xrotation
		JOINT RightLeg
		{
			OFFSET -0.038290 -0.382569 -0.008850
			CHANNELS 3 Zrotation Yrotation Xrotation
			JOINT RightFoot
			{
				OFFSET 0.015774 -0.398415 -0.042312
				CHANNELS 3 Zrotation Yrotation Xrotation
				JOINT RightToe
				{
					OFFSET -0.025372 -0.048144 0.123348
					CHANNELS 3 Zrotation Yrotation Xrotation
					End Site
					{
						OFFSET 0.000000 0.000000 0.000000
					}
				}
			}
		}
	}
	JOINT Spine
	{
		OFFSET -0.002533 0.108963 -0.026696
		CHANNELS 3 Zrotation Yrotation Xrotation
		JOINT Spine1
		{
			OFFSET 0.005487 0.135180 0.001092
			CHANNELS 3 Zrotation Yrotation Xrotation
			JOINT Spine2
			{
				OFFSET 0.001457 0.052922 0.025425
				CHANNELS 3 Zrotation Yrotation Xrotation
				JOINT Neck
				{
					OFFSET -0.002778 0.213870 -0.042857
					CHANNELS 3 Zrotation Yrotation Xrotation
					JOINT Head
					{
						OFFSET 0.005152 0.064970 0.051349
						CHANNELS 3 Zrotation Yrotation Xrotation
						End Site
						{
							OFFSET 0.000000 0.000000 0.000000
						}
					}
				}
				JOINT LeftShoulder
				{
					OFFSET 0.078845 0.121749 -0.034090
					CHANNELS 3 Zrotation Yrotation Xrotation
					JOINT LeftArm
					{
						OFFSET 0.090977 0.030469 -0.008868
						CHANNELS 3 Zrotation Yrotation Xrotation
						JOINT LeftForeArm
						{
							OFFSET 0.259612 -0.012772 -0.027456
							CHANNELS 3 Zrotation Yrotation Xrotation
							JOINT LeftHand
							{
								OFFSET 0.249234 0.008986 -0.001171
								CHANNELS 3 Zrotation Yrotation Xrotation
								End Site
								{
									OFFSET 0.000000 0.000000 0.000000
								}
							}
						}
					}
				}
				JOINT RightShoulder
				{
					OFFSET -0.081759 0.118833 -0.038615
					CHANNELS 3 Zrotation Yrotation Xrotation
					JOINT RightArm
					{
						OFFSET -0.096012 0.032551 -0.009143
						CHANNELS 3 Zrotation Yrotation Xrotation
						JOINT RightForeArm
						{
							OFFSET -0.253742 -0.013329 -0.021401
							CHANNELS 3 Zrotation Yrotation Xrotation
							JOINT RightHand
							{
								OFFSET -0.255298 0.007772 -0.005559
								CHANNELS 3 Zrotation Yrotation Xrotation
								End Site
								{
									OFFSET 0.000000 0.000000 0.000000
								}
							}
						}
					}
				}
			}
		}
	}
}
MOTION
Frames: 10
Frame Time: 0.050000
-0.007443 0.916568 -0.023106 -3.509374 -0.907852 -6.165312 13.946803 0.432779 -11.778240 -9.698179 2.738045 31.023940 10.732097 21.299416 17.597540 0.000000 0.000000 0.000000 -1.738555 0.999778 -11.381566 3.495969 -0.100143 24.550750 -4.470271 -12.761865 8.036218 0.000000 0.000000 0.000000 3.269879 -1.716778 24.938939 -6.503909 2.527857 -16.511082 -1.928498 5.020410 31.241079 13.024672 -7.920796 -16.603622 0.000000 0.000000 0.000000 -7.921398 -15.724296 5.712635 -33.750351 -24.921698 0.320824 96.762298 -67.420744 -70.045667 0.000000 0.000000 0.000000 19.121858 4.650166 2.845650 29.384457 45.163144 4.892915 -93.725205 67.744928 -63.443297 0.000000 0.000000 0.000000 
-0.007367 0.914545 -0.023079 -3.309514 -0.834255 -6.516237 13.704157 0.408244 -11.588377 -9.655194 2.727876 31.379003 10.787039 21.384637 17.130323 0.000000 0.000000 0.000000 -1.870398 1.013115 -11.701826 3.365798 -0.041956 25.825708 -4.580045 -12.921494 7.734566 0.000000 0.000000 0.000000 3.377011 -1.718882 24.676890 -6.658149 2.568691 -16.865914 -2.114212 5.292988 31.596618 13.327001 -8.206773 -16.375921 0.000000 0.000000 0.000000 -8.347665 -15.675464 5.682230 -34.560148 -23.496024 -0.012899 95.990411 -69.101641 -71.114722 0.000000 0.000000 0.000000 18.467193 4.504292 2.804162 28.254287 46.312018 4.828451 -96.647157 65.219141 -63.456069 0.000000 0.000000 0.000000 
-0.007442 0.912784 -0.022904 -3.298172 -0.818952 -6.711771 13.748907 0.405513 -11.165461 -9.731114 2.739338 31.123509 10.884922 21.531862 16.313838 0.000000 0.000000 0.000000 -1.730348 1.021021 -11.649380 3.132709 0.043039 26.188675 -4.685457 -13.038466 7.187545 0.000000 0.000000 0.000000 3.331674 -1.667556 24.117760 -6.497927 2.522119 -16.805410 -2.359871 5.266127 31.321707 13.149335 -8.388091 -15.122494 0.000000 0.000000 0.000000 -9.040300 -15.897839 5.810408 -35.733858 -21.812384 -0.381926 84.708512 -71.228462 -62.686964 0.000000 0.000000 0.000000 18.164608 4.761588 2.909466 27.119590 48.410272 4.996356 -99.558685 62.121120 -62.884320 0.000000 0.000000 0.000000 
-0.007525 0.911587 -0.022897 -3.200964 -0.836493 -7.034796 13.839128 0.411722 -10.717480 -10.009140 2.842436 31.004158 10.908563 21.571664 15.873562 0.000000 0.000000 0.000000 -1.704619 1.031981 -11.757998 2.947098 0.125637 27.014696 -4.727541 -13.097460 7.043697 0.000000 0.000000 0.000000 3.418516 -1.659157 23.838644 -6.702896 2.585367 -16.982215 -2.679813 4.966112 31.171344 13.034926 -8.479101 -14.651291 0.000000 0.000000 0.000000 -9.440111 -16.449584 6.098106 -37.047863 -20.593146 -0.668249 68.628720 -72.296313 -49.409825 0.000000 0.000000 0.000000 17.746684 4.694389 2.777669 26.751091 50.165737 5.310031 -103.241177 60.413308 -64.496966 0.000000 0.000000 0.000000 
-0.007469 0.910936 -0.023118 -3.210539 -0.958530 -7.382179 13.984621 0.425429 -10.167590 -10.199696 2.914826 30.771667 10.952376 21.633473 15.524665 0.000000 0.000000 0.000000 -1.656865 1.019065 -11.561447 2.897104 0.159715 27.302315 -4.699287 -13.020599 6.906894 0.000000 0.000000 0.000000 3.138333 -1.603284 23.969619 -6.515109 2.504122 -17.572260 -3.152391 4.776361 31.386812 13.195247 -8.657777 -14.628573 0.000000 0.000000 0.000000 -9.238667 -16.930051 6.318850 -39.020644 -19.817934 -0.878277 53.085233 -72.046192 -36.280928 0.000000 0.000000 0.000000 17.407380 4.417702 2.556470 26.535329 52.019842 5.677806 -105.530930 59.249118 -65.434901 0.000000 0.000000 0.000000 
-0.007239 0.910909 -0.023579 -3.103733 -1.025042 -7.420392 14.021603 0.420645 -9.770125 -10.485793 3.000625 30.156989 10.994912 21.696264 15.208648 0.000000 0.000000 0.000000 -1.915519 0.999703 -11.620298 3.104066 0.095664 27.393467 -4.645386 -12.920516 6.930641 0.000000 0.000000 0.000000 3.459988 -1.646701 23.775204 -7.088256 2.680905 -17.675278 -3.488886 4.402519 31.107629 12.975386 -8.596543 -14.373750 0.000000 0.000000 0.000000 -9.767185 -16.902447 6.400024 -40.094996 -19.093517 -1.065852 41.097907 -71.444303 -26.494937 0.000000 0.000000 0.000000 16.890737 4.120090 2.283513 27.038451 52.744082 6.085883 -109.456602 59.786426 -69.910337 0.000000 0.000000 0.000000 
-0.006894 0.911286 -0.024126 -2.930967 -1.067047 -7.340639 13.851053 0.392144 -9.378228 -10.601745 3.003700 29.315880 11.062226 21.794421 14.883433 0.000000 0.000000 0.000000 -2.059100 0.980166 -11.550075 2.974501 0.141791 27.048527 -4.613284 -12.844965 6.849355 0.000000 0.000000 0.000000 3.436230 -1.627116 23.622248 -7.270689 2.724476 -17.890998 -3.789981 4.233141 31.059651 12.804973 -8.478764 -14.361752 0.000000 0.000000 0.000000 -10.131286 -16.771287 6.405851 -41.006900 -18.619806 -1.205511 34.880847 -70.730087 -21.427657 0.000000 0.000000 0.000000 16.428071 3.705439 2.005567 27.512519 53.350173 6.446058 -112.372247 60.983257 -74.253156 0.000000 0.000000 0.000000 
-0.006593 0.912287 -0.024848 -2.713533 -1.202530 -7.299605 13.703780 0.366383 -8.774998 -10.833558 3.038659 28.182583 11.119790 21.875818 14.700170 0.000000 0.000000 0.000000 -2.182527 0.957828 -11.408253 2.737919 0.231544 26.602752 -4.511347 -12.661029 6.916721 0.000000 0.000000 0.000000 3.695646 -1.650421 23.407725 -7.796187 2.858346 -18.492949 -4.105203 3.961076 31.316700 12.732316 -8.455385 -14.505653 0.000000 0.000000 0.000000 -10.239493 -16.448083 6.343748 -41.714627 -18.292143 -1.351200 30.757900 -69.743004 -17.883040 0.000000 0.000000 0.000000 16.098191 3.316136 1.725665 28.545987 53.801926 6.966171 -114.650161 63.167940 -79.213505 0.000000 0.000000 0.000000 
-0.006540 0.913346 -0.025823 -2.542987 -1.342680 -7.153754 13.616144 0.350362 -8.387108 -11.053106 3.073013 27.177198 11.175013 21.947236 14.660968 0.000000 0.000000 0.000000 -2.241680 0.937813 -11.215078 2.500701 0.308986 25.841070 -4.418928 -12.480526 6.895216 0.000000 0.000000 0.000000 3.772690 -1.637765 23.139420 -8.088963 2.942084 -18.475163 -4.252656 3.704523 31.219022 12.427624 -8.180678 -14.778904 0.000000 0.000000 0.000000 -10.450737 -16.403306 6.394330 -42.016676 -18.309031 -1.336440 29.800940 -68.147755 -16.575650 0.000000 0.000000 0.000000 15.871318 3.418261 1.700021 29.049618 54.396811 7.342844 -115.467750 64.739139 -82.005363 0.000000 0.000000 0.000000 
-0.006845 0.913974 -0.026868 -2.348464 -1.427385 -6.748622 13.679513 0.351363 -8.529326 -11.519327 3.212962 26.531372 11.201213 21.975128 14.799462 0.000000 0.000000 0.000000 -2.449959 0.935964 -11.390625 2.506811 0.299571 25.218478 -4.371592 -12.377913 6.814917 0.000000 0.000000 0.000000 3.852822 -1.632810 22.901845 -8.165594 2.959984 -18.420872 -4.682344 3.581815 31.120202 12.648518 -8.200375 -15.401448 0.000000 0.000000 0.000000 -10.467930 -16.612298 6.518770 -42.004666 -18.636559 -1.213513 29.053486 -65.797835 -15.313006 0.000000 0.000000 0.000000 15.781001 3.306929 1.597875 28.648971 55.531596 7.477889 -115.390104 65.061734 -82.411825 0.000000 0.000000 0.000000 
